<?xml version="1.0" encoding="utf-8"?>
<!-- Generated by IcoMoon.io -->
<!DOCTYPE svg PUBLIC "-//W3C//DTD SVG 1.1//EN" "http://www.w3.org/Graphics/SVG/1.1/DTD/svg11.dtd">
<svg version="1.1" xmlns="http://www.w3.org/2000/svg" xmlns:xlink="http://www.w3.org/1999/xlink" width="768" height="96" viewBox="0 0 768 96">
<g transform="translate(0 0)">
	<path d="M63.264 54.288c-3.446 0-6.24 3.869-6.24 8.635 0 4.771 2.794 8.64 6.24 8.64s6.24-3.869 6.24-8.64c-0.005-4.771-2.798-8.635-6.24-8.635zM84.989 31.805c0.71-1.752 0.744-11.712-3.043-21.245 0 0-8.698 0.95-21.85 9.979-2.76-0.763-7.43-1.142-12.096-1.142-4.67 0-9.336 0.384-12.101 1.142-13.147-9.029-21.84-9.979-21.84-9.979-3.787 9.533-3.758 19.493-3.043 21.245-4.454 4.838-7.176 10.646-7.176 18.581 0 34.493 28.618 35.045 35.842 35.045 1.637 0 4.891 0.005 8.323 0.010 3.432-0.005 6.686-0.010 8.314-0.010 7.229 0 35.842-0.552 35.842-35.045 0-7.934-2.717-13.742-7.171-18.581zM48.134 81.192h-0.264c-18.106 0-32.208-2.16-32.208-19.757 0-4.214 1.493-8.126 5.021-11.371 5.899-5.41 15.869-2.544 27.187-2.544 0.043 0 0.091 0 0.134-0.005 0.048 0 0.091 0.005 0.13 0.005 11.318 0 21.293-2.866 27.187 2.544 3.528 3.245 5.016 7.157 5.016 11.371 0 17.597-14.093 19.757-32.203 19.757zM32.741 54.288c-3.446 0-6.24 3.869-6.24 8.635 0 4.771 2.794 8.64 6.24 8.64s6.24-3.869 6.24-8.64c0-4.771-2.794-8.635-6.24-8.635z" fill="#ffff00" />
</g>
<g transform="translate(112 0)">
	<path d="M81.446 24c0-4.8-4.776-4.8-4.776-4.8h-57.341c0 0-4.776 0-4.776 4.8v4.8h66.893v-4.8zM67.109 9.6h-38.222c0 0-4.776 0-4.776 4.8h47.779c0-4.8-4.781-4.8-4.781-4.8zM90.998 28.8c-2.827-2.842-2.827-2.842-2.827-2.842v7.642h-80.347v-7.642c0 0 0 0-2.827 2.842s-4.853 3.605-3.71 9.605c1.128 5.976 6.614 38.76 7.426 43.195 0.898 4.867 5.842 4.8 5.842 4.8h66.893c0 0 4.944 0.067 5.842-4.8 0.816-4.435 6.298-37.219 7.43-43.195 1.138-6-0.888-6.763-3.72-9.605zM67.109 54.72c0 0 0 4.8-4.781 4.8h-28.661c-4.776 0-4.776-4.8-4.776-4.8v-9.6h6.691v7.68h24.83v-7.68h6.701v9.6z" fill="#ffff00" />
</g>
<g transform="translate(224 0)">
	<path d="M72 19.819h-13.709c-1.622 0-3.432 2.131-3.432 4.987v9.898h17.141v14.112h-17.141v42.384h-16.186v-42.379h-14.674v-14.117h14.674v-8.304c0-11.909 8.266-21.6 19.613-21.6h13.714v15.019z" fill="#ffff00" />
</g>
<g transform="translate(336 0)">
	<path d="M92.16 20.606c-3.254 1.445-6.744 2.414-10.411 2.856 3.744-2.242 6.619-5.794 7.968-10.022-3.499 2.074-7.378 3.586-11.501 4.397-3.307-3.523-8.016-5.722-13.229-5.722-10.008 0-18.12 8.112-18.12 18.115 0 1.421 0.158 2.803 0.47 4.128-15.058-0.754-28.411-7.968-37.344-18.931-1.565 2.674-2.462 5.789-2.462 9.11 0 6.288 3.202 11.832 8.064 15.082-2.971-0.096-5.765-0.907-8.208-2.266 0 0.077 0 0.149 0 0.226 0 8.779 6.25 16.099 14.534 17.77-1.517 0.413-3.12 0.634-4.776 0.634-1.166 0-2.299-0.11-3.408-0.322 2.304 7.2 9 12.437 16.925 12.581-6.202 4.862-14.011 7.757-22.502 7.757-1.464 0-2.904-0.086-4.32-0.254 8.016 5.141 17.539 8.141 27.778 8.141 33.326 0 51.552-27.61 51.552-51.557 0-0.782-0.014-1.565-0.053-2.342 3.542-2.554 6.61-5.746 9.043-9.379z" fill="#ffff00" />
</g>
<g transform="translate(448 0)">
	<path d="M94.478 24.115l-22.435-14.050c-0.994-0.624-2.237-0.624-3.23 0l-20.813 13.037-20.813-13.032c-0.994-0.624-2.237-0.624-3.23 0l-22.435 14.045c-0.941 0.59-1.522 1.661-1.522 2.808v56.194c0 1.181 0.605 2.275 1.594 2.856s2.194 0.566 3.163-0.043l20.813-13.037 20.813 13.037c0.994 0.624 2.237 0.624 3.235 0l20.813-13.037 20.813 13.037c0.494 0.312 1.056 0.47 1.618 0.47 0.533 0 1.066-0.144 1.546-0.427 0.984-0.581 1.594-1.675 1.594-2.856v-56.194c0-1.147-0.581-2.218-1.522-2.808zM22.43 67.214l-16.152 10.114v-48.547l16.152-10.114v48.547zM44.861 77.328l-16.152-10.114v-48.547l16.152 10.114v48.547zM67.291 67.214l-16.147 10.114v-48.547l16.147-10.114v48.547zM89.717 77.328l-16.147-10.114v-48.547l16.147 10.114v48.547z" fill="#ffff00" />
</g>
<g transform="translate(560 0)">
	<path d="M58.387 85.723c-0.134 1.488 1.042 2.803 2.621 2.933l19.128 1.57c1.574 0.13 2.981-0.974 3.115-2.462l1.498-15.773-24.869-2.050-1.493 15.782zM11.251 71.995l1.493 15.773c0.139 1.488 1.546 2.592 3.12 2.462l19.128-1.57c1.574-0.13 2.755-1.45 2.616-2.933l-1.498-15.778-24.859 2.045zM8.789 45.998l1.541 16.272 24.869-2.045-1.546-16.258c-0.034-0.389-0.053-0.797-0.053-1.195 0-7.469 6.461-13.541 14.4-13.541s14.4 6.077 14.4 13.541c0 0.398-0.019 0.802-0.058 1.195l-1.536 16.258 24.864 2.045 1.541-16.272c0.096-1.075 0.149-2.155 0.149-3.226 0-20.41-17.659-37.013-39.36-37.013s-39.36 16.603-39.36 37.013c0 1.070 0.053 2.15 0.149 3.226z" fill="#ffff00" />
</g>
<g transform="translate(672 0)">
	<path d="M48 1.915c-25.411 0-46.080 20.678-46.080 46.085 0 25.411 20.669 46.085 46.080 46.085s46.080-20.674 46.080-46.085c0-25.406-20.669-46.085-46.080-46.085zM87.302 48c0 8.99-3.053 17.285-8.141 23.909-1.44-1.128-2.966-4.166-1.526-7.315 1.45-3.168 1.829-10.502 1.498-13.354-0.317-2.851-1.8-9.725-5.832-9.792-4.018-0.062-6.778-1.387-9.168-6.158-4.958-9.922 9.307-11.832 4.349-17.328-1.387-1.541-8.558 6.355-9.61-4.166-0.072-0.754 0.648-1.882 1.608-3.048 15.571 5.232 26.822 19.949 26.822 37.253zM42.6 9.091c-0.936 1.824-3.418 2.573-4.93 3.95-3.278 2.966-4.69 2.558-6.461 5.41-1.776 2.851-7.517 6.955-7.517 9.019 0 2.059 2.899 4.498 4.349 4.022 1.45-0.48 5.27-0.451 7.517 0.336 2.251 0.797 18.792 1.589 13.517 15.571-1.67 4.445-8.986 3.696-10.934 11.059-0.293 1.080-1.301 5.693-1.373 7.2-0.115 2.333 1.651 11.126-0.6 11.126-2.261 0-8.338-7.867-8.338-9.293s-1.579-6.427-1.579-10.704-7.282-4.21-7.282-9.898c0-5.136 3.95-7.69 3.062-10.142-0.874-2.448-7.81-2.534-10.699-2.832 5.050-13.114 16.939-22.848 31.267-24.826zM35.64 85.296c2.362-1.243 2.602-2.856 4.742-2.942 2.448-0.106 4.44-0.955 7.195-1.56 2.453-0.533 6.83-3.019 10.694-3.336 3.25-0.269 9.672 0.168 11.4 3.307-6.221 4.128-13.67 6.538-21.672 6.538-4.32 0-8.472-0.71-12.36-2.006z" fill="#ffff00" />
</g>
</svg>
